<svg width="680" viewBox="0 0 680 560" xmlns="http://www.w3.org/2000/svg" style="background:white">
<style>text{font-family:Arial,sans-serif}.th{font-size:14px;font-weight:500;fill:#2C2C2A}.ts{font-size:12px;fill:#5F5E5A}</style>
<defs><marker id="arrow" viewBox="0 0 10 10" refX="8" refY="5" markerWidth="6" markerHeight="6" orient="auto-start-reverse"><path d="M2 1L8 5L2 9" fill="none" stroke="context-stroke" stroke-width="1.5" stroke-linecap="round" stroke-linejoin="round"/></marker></defs>
<text class="th" x="340" y="24" text-anchor="middle" style="font-size:15px">Melodica cross-section v3 (2-piece structure, final)</text>
<!-- PART 1 -->
<rect x="50" y="40" width="480" height="260" rx="8" fill="#E1F5EE" stroke="#0F6E56" stroke-width="0.8"/>
<text class="th" x="290" y="60" text-anchor="middle" fill="#085041">Part 1: white ABS integrated assembly</text>
<text class="ts" x="290" y="76" text-anchor="middle">Keyboard + valve + reed plate + gasket + air chamber (all one piece)</text>
<!-- Keys -->
<rect x="90" y="88" width="28" height="22" rx="2" fill="#FAFAF8" stroke="#B4B2A9" stroke-width="0.5"/>
<rect x="140" y="88" width="28" height="22" rx="2" fill="#FAFAF8" stroke="#B4B2A9" stroke-width="0.5"/>
<rect x="190" y="88" width="28" height="22" rx="2" fill="#FAFAF8" stroke="#B4B2A9" stroke-width="0.5"/>
<rect x="240" y="88" width="28" height="22" rx="2" fill="#FAFAF8" stroke="#B4B2A9" stroke-width="0.5"/>
<rect x="290" y="88" width="28" height="22" rx="2" fill="#FAFAF8" stroke="#B4B2A9" stroke-width="0.5"/>
<rect x="340" y="88" width="28" height="22" rx="2" fill="#FAFAF8" stroke="#B4B2A9" stroke-width="0.5"/>
<rect x="390" y="88" width="28" height="22" rx="2" fill="#FAFAF8" stroke="#B4B2A9" stroke-width="0.5"/>
<rect x="440" y="88" width="28" height="22" rx="2" fill="#FAFAF8" stroke="#B4B2A9" stroke-width="0.5"/>
<rect x="122" y="88" width="16" height="14" rx="1" fill="#444" opacity="0.6"/>
<rect x="222" y="88" width="16" height="14" rx="1" fill="#444" opacity="0.6"/>
<rect x="322" y="88" width="16" height="14" rx="1" fill="#444" opacity="0.6"/>
<rect x="422" y="88" width="16" height="14" rx="1" fill="#444" opacity="0.6"/>
<!-- Valve open -->
<circle cx="204" cy="114" r="4" fill="#5DCAA5" stroke="#0F6E56" stroke-width="0.6"/>
<text class="ts" x="204" y="108" text-anchor="middle" fill="#0F6E56" style="font-size:10px">open</text>
<!-- A1 sound out -->
<line x1="204" y1="110" x2="204" y2="86" stroke="#5DCAA5" stroke-width="1.2" marker-end="url(#arrow)" stroke-dasharray="3 2"/>
<text class="ts" x="220" y="95" fill="#0F6E56" style="font-size:10px">A1: sound</text>
<!-- Reed plate -->
<rect x="72" y="128" width="420" height="10" rx="1" fill="#D4A520" stroke="#996515" stroke-width="0.5"/>
<text class="ts" x="540" y="136" fill="#996515">Reed plate</text>
<!-- Gasket -->
<rect x="72" y="138" width="420" height="4" rx="0.5" fill="#333" stroke="#111" stroke-width="0.3"/>
<text class="ts" x="540" y="144">Gasket</text>
<!-- Reeds -->
<rect x="197" y="138" width="14" height="4" rx="0.5" fill="#EF9F27" stroke="#854F0B" stroke-width="0.6"/>
<path d="M195 146 Q199 150 203 146 Q207 142 211 146" fill="none" stroke="#EF9F27" stroke-width="0.8" opacity="0.8"/>
<path d="M193 152 Q199 157 205 152 Q211 147 217 152" fill="none" stroke="#EF9F27" stroke-width="0.5" opacity="0.4"/>
<!-- Partitions -->
<line x1="80" y1="138" x2="80" y2="276" stroke="#888" stroke-width="1.2" opacity="0.4"/>
<line x1="132" y1="138" x2="132" y2="276" stroke="#888" stroke-width="1.2" opacity="0.4"/>
<line x1="182" y1="138" x2="182" y2="276" stroke="#888" stroke-width="1.2" opacity="0.4"/>
<line x1="232" y1="138" x2="232" y2="276" stroke="#888" stroke-width="1.2" opacity="0.4"/>
<line x1="272" y1="138" x2="272" y2="276" stroke="#888" stroke-width="1.2" opacity="0.4"/>
<line x1="315" y1="138" x2="315" y2="276" stroke="#888" stroke-width="1.2" opacity="0.4"/>
<line x1="360" y1="138" x2="360" y2="276" stroke="#888" stroke-width="1.2" opacity="0.4"/>
<line x1="405" y1="138" x2="405" y2="276" stroke="#888" stroke-width="1.2" opacity="0.4"/>
<line x1="440" y1="138" x2="440" y2="276" stroke="#888" stroke-width="1.2" opacity="0.4"/>
<line x1="472" y1="138" x2="472" y2="276" stroke="#888" stroke-width="1.2" opacity="0.4"/>
<text class="ts" x="280" y="210" text-anchor="middle" fill="#534AB7">B2c: 31 partition walls (88% of BN2)</text>
<text class="ts" x="280" y="226" text-anchor="middle">Low = wide spacing / High = narrow</text>
<!-- Mouthpiece -->
<rect x="50" y="184" width="26" height="12" rx="4" fill="#FAFAF8" stroke="#888" stroke-width="0.5"/>
<line x1="26" y1="190" x2="48" y2="190" stroke="#5DCAA5" stroke-width="1.5" marker-end="url(#arrow)"/>
<text class="ts" x="14" y="188" text-anchor="end" fill="#0F6E56">Breath</text>
<!-- Airflow up -->
<line x1="204" y1="240" x2="204" y2="146" stroke="#5DCAA5" stroke-width="1" opacity="0.5" marker-end="url(#arrow)" stroke-dasharray="3 2"/>
<!-- ABS bottom wall -->
<rect x="70" y="274" width="422" height="6" rx="1" fill="#FAFAF8" stroke="#888" stroke-width="0.5"/>
<text class="ts" x="280" y="270" text-anchor="middle">ABS chamber bottom wall</text>
<!-- BN annotations -->
<rect x="544" y="124" width="130" height="40" rx="6" fill="#FAECE7" stroke="#993C1D" stroke-width="0.5"/>
<text class="th" x="609" y="140" text-anchor="middle" fill="#712B13">BN1: 82%</text>
<text class="ts" x="609" y="154" text-anchor="middle" fill="#993C1D">DC->AC</text>
<line x1="493" y1="142" x2="542" y2="140" stroke="#993C1D" stroke-width="0.5" stroke-dasharray="3 2"/>
<circle cx="493" cy="142" r="2" fill="#993C1D"/>
<rect x="544" y="178" width="130" height="52" rx="6" fill="#EEEDFE" stroke="#534AB7" stroke-width="0.5"/>
<text class="th" x="609" y="196" text-anchor="middle" fill="#3C3489">BN2: 47%</text>
<text class="ts" x="609" y="212" text-anchor="middle" fill="#534AB7">Plate->ABS walls</text>
<text class="ts" x="609" y="224" text-anchor="middle" fill="#534AB7">31 partitions=88%</text>
<line x1="493" y1="216" x2="542" y2="206" stroke="#534AB7" stroke-width="0.5" stroke-dasharray="3 2"/>
<circle cx="493" cy="216" r="2" fill="#534AB7"/>
<rect x="544" y="244" width="130" height="52" rx="6" fill="#FAEEDA" stroke="#854F0B" stroke-width="0.5"/>
<text class="th" x="609" y="262" text-anchor="middle" fill="#633806">BN3: 99%</text>
<text class="ts" x="609" y="278" text-anchor="middle" fill="#854F0B">ABS+sponge+case</text>
<text class="ts" x="609" y="290" text-anchor="middle" fill="#854F0B">Gamma=93</text>
<line x1="493" y1="280" x2="542" y2="274" stroke="#854F0B" stroke-width="0.5" stroke-dasharray="3 2"/>
<circle cx="493" cy="280" r="2" fill="#854F0B"/>
<!-- Sponge -->
<rect x="70" y="286" width="422" height="6" rx="1" fill="#333" stroke="#555" stroke-width="0.3" stroke-dasharray="2 2"/>
<text class="ts" x="540" y="292">Sponge</text>
<!-- PART 2 -->
<rect x="50" y="298" width="480" height="40" rx="6" fill="#E6F1FB" stroke="#185FA5" stroke-width="0.8"/>
<text class="th" x="290" y="322" text-anchor="middle" fill="#0C447C">Part 2: blue ABS bottom case (slits, 4 screws)</text>
<rect x="110" y="304" width="3" height="28" rx="1" fill="white" opacity="0.3"/>
<rect x="155" y="304" width="3" height="28" rx="1" fill="white" opacity="0.3"/>
<rect x="200" y="304" width="3" height="28" rx="1" fill="white" opacity="0.3"/>
<rect x="245" y="304" width="3" height="28" rx="1" fill="white" opacity="0.3"/>
<rect x="290" y="304" width="3" height="28" rx="1" fill="white" opacity="0.3"/>
<rect x="335" y="304" width="3" height="28" rx="1" fill="white" opacity="0.3"/>
<rect x="380" y="304" width="3" height="28" rx="1" fill="white" opacity="0.3"/>
<rect x="425" y="304" width="3" height="28" rx="1" fill="white" opacity="0.3"/>
<rect x="470" y="304" width="3" height="28" rx="1" fill="white" opacity="0.3"/>
<text class="ts" x="290" y="356" text-anchor="middle">Sound: 0.22 mW (0.085%)</text>
<!-- Power flow -->
<line x1="40" y1="380" x2="640" y2="380" stroke="#B4B2A9" stroke-width="0.5"/>
<text class="th" x="340" y="402" text-anchor="middle">Power flow: 265mW -> 48mW -> 25.5mW -> 13.5mW -> 0.22mW</text>
<!-- v3 -->
<rect x="30" y="486" width="620" height="50" rx="8" fill="#EAF3DE" stroke="#3B6D11" stroke-width="0.5"/>
<text class="th" x="340" y="506" text-anchor="middle" fill="#27500A">v3: Replace Part 2 with kiri box bonded to Part 1</text>
<text class="ts" x="340" y="524" text-anchor="middle" fill="#3B6D11">ABS->kiri T=96.5% | Gamma 93->1.8 | +13 dB | Target 85 dB SPL @1m</text>
</svg>
